<?xml version="1.0"?>
<svg xmlns="http://www.w3.org/2000/svg" xmlns:xlink="http://www.w3.org/1999/xlink" xmlns:svgjs="http://svgjs.com/svgjs"
  version="1.1" x="0" y="0" viewBox="0 0 512 512" style="enable-background:new 0 0 512 512"
  xml:space="preserve">
  <g>
    <g xmlns="http://www.w3.org/2000/svg">
      <g>
        <g>
          <g>
            <g>
              <path
                d="m136 72.51 10 188.42h-70v-188.42c0-8.29 3.36-15.79 8.79-21.22s12.93-8.79 21.21-8.79c16.57 0 30 13.44 30 30.01z"
                fill="#997ab8" data-original="#997ab8" style="" />
              <ellipse cx="106" cy="25.002" fill="#ffc796" rx="17.5" ry="17.502" data-original="#ffc796" style="" />
            </g>
            <g>
              <path
                d="m196 72.51v188.42h-60v-188.42c0-8.29 3.36-15.79 8.79-21.22s12.93-8.79 21.21-8.79c16.57 0 30 13.44 30 30.01z"
                fill="#b77e5a" data-original="#b77e5a" style="" />
              <ellipse cx="166" cy="25.002" fill="#ffc796" rx="17.5" ry="17.502" data-original="#ffc796" style="" />
            </g>
            <g>
              <path
                d="m256 72.51 10 188.42h-80l10-188.42c0-8.29 3.36-15.79 8.79-21.22s12.93-8.79 21.21-8.79c16.57 0 30 13.44 30 30.01z"
                fill="#f7775b" data-original="#f7775b" style="" />
              <ellipse cx="226" cy="25.002" fill="#df9f7a" rx="17.5" ry="17.502" data-original="#df9f7a" style="" />
            </g>
            <g>
              <path
                d="m316 72.51v188.42h-60v-188.42c0-8.29 3.36-15.79 8.79-21.22s12.93-8.79 21.21-8.79c16.57 0 30 13.44 30 30.01z"
                fill="#ffc54b" data-original="#ffc54b" style="" />
              <ellipse cx="286" cy="25.002" fill="#ffc796" rx="17.5" ry="17.502" data-original="#ffc796" style="" />
            </g>
            <g>
              <path
                d="m376 72.51 10 188.42h-80l10-188.42c0-8.29 3.36-15.79 8.79-21.22s12.93-8.79 21.21-8.79c16.57 0 30 13.44 30 30.01z"
                fill="#ffe26f" data-original="#ffe26f" style="" />
              <ellipse cx="346" cy="25.002" fill="#ffc796" rx="17.5" ry="17.502" data-original="#ffc796" style="" />
            </g>
            <g>
              <path
                d="m436 72.51v188.42h-60v-188.42c0-8.29 3.36-15.79 8.79-21.22 3.98-3.98 9.07-6.85 14.76-8.08 2.08-.47 4.24-.71 6.45-.71 16.57 0 30 13.44 30 30.01z"
                fill="#d1e16f" data-original="#d1e16f" style="" />
              <ellipse cx="406" cy="25.002" fill="#df9f7a" rx="17.5" ry="17.502" data-original="#df9f7a" style="" />
            </g>
          </g>
          <g>
            <path d="m76 86.5h60v174.43h-60z" fill="#6957a1" data-original="#6957a1" style="" />
            <path d="m196 86.5h60v174.43h-60z" fill="#f25853" data-original="#f25853" style="" />
            <path d="m316 86.5h60v174.43h-60z" fill="#ffc54b" data-original="#ffc54b" style="" />
          </g>
          <g>
            <path d="m136 86.5h60v174.43h-60z" fill="#98654c" data-original="#98654c" style="" />
            <path d="m256 86.5h60v174.43h-60z" fill="#feac38" data-original="#feac38" style="" />
            <path
              d="m406 42.5c-2.21 0-4.37.24-6.45.71 3.85.99 7.29 3.01 10.01 5.73 3.98 3.98 6.44 9.48 6.44 15.56 0 12.15-9.85 22-22 22h-18v174.43h60v-188.42c0-16.57-13.43-30.01-30-30.01z"
              fill="#9ccc4b" data-original="#9ccc4b" style="" />
          </g>
          <g>
            <g>
              <path
                d="m466 180.26v90.91h-70l10-90.91c0-8.28 3.36-15.78 8.79-21.21 2.05-2.05 4.4-3.81 6.97-5.2 4.24-2.29 9.09-3.59 14.24-3.59 16.57 0 30 13.43 30 30z"
                fill="#997ab8" data-original="#997ab8" style="" />
              <ellipse cx="436" cy="132.755" fill="#df9f7a" rx="17.5" ry="17.502" data-original="#df9f7a" style="" />
            </g>
            <g>
              <path
                d="m226 180.26 10 90.91h-80l10-90.91c0-8.28 3.36-15.78 8.79-21.21s12.93-8.79 21.21-8.79c16.57 0 30 13.43 30 30z"
                fill="#e6f8fc" data-original="#e6f8fc" style="" />
              <ellipse cx="196" cy="132.755" fill="#ffc796" rx="17.5" ry="17.502" data-original="#ffc796" style="" />
            </g>
            <g>
              <path
                d="m106 180.26 10 90.91h-70v-90.91c0-8.28 3.36-15.78 8.79-21.21s12.93-8.79 21.21-8.79c16.57 0 30 13.43 30 30z"
                fill="#ffe26f" data-original="#ffe26f" style="" />
              <ellipse cx="76" cy="132.755" fill="#ffc796" rx="17.5" ry="17.502" data-original="#ffc796" style="" />
            </g>
            <g>
              <path
                d="m346 180.26 10 90.91h-80l10-90.91c0-8.28 3.36-15.78 8.79-21.21s12.93-8.79 21.21-8.79c16.57 0 30 13.43 30 30z"
                fill="#3a4b56" data-original="#3a4b56" style="" />
              <ellipse cx="316" cy="132.755" fill="#df9f7a" rx="17.5" ry="17.502" data-original="#df9f7a" style="" />
            </g>
            <g>
              <path
                d="m166 180.26v90.91h-60v-90.91c0-8.28 3.36-15.78 8.79-21.21s12.93-8.79 21.21-8.79c16.57 0 30 13.43 30 30z"
                fill="#d1e16f" data-original="#d1e16f" style="" />
              <ellipse cx="136" cy="132.755" fill="#df9f7a" rx="17.5" ry="17.502" data-original="#df9f7a" style="" />
            </g>
            <g>
              <path
                d="m286 180.26v90.91h-60v-90.91c0-8.28 3.36-15.78 8.79-21.21s12.93-8.79 21.21-8.79c16.57 0 30 13.43 30 30z"
                fill="#b77e5a" data-original="#b77e5a" style="" />
              <ellipse cx="256" cy="132.755" fill="#ffc796" rx="17.5" ry="17.502" data-original="#ffc796" style="" />
            </g>
            <g>
              <path
                d="m406 180.26v90.91h-60v-90.91c0-8.28 3.36-15.78 8.79-21.21s12.93-8.79 21.21-8.79c16.57 0 30 13.43 30 30z"
                fill="#f7775b" data-original="#f7775b" style="" />
              <ellipse cx="376" cy="132.755" fill="#ffc796" rx="17.5" ry="17.502" data-original="#ffc796" style="" />
            </g>
          </g>
          <g>
            <path d="m106 239.37h60v31.8h-60z" fill="#9ccc4b" data-original="#9ccc4b" style="" />
            <path d="m226 239.37h60v31.8h-60z" fill="#98654c" data-original="#98654c" style="" />
            <path d="m346 239.37h60v31.8h-60z" fill="#f25853" data-original="#f25853" style="" />
          </g>
          <g>
            <path d="m46 239.37h60v31.8h-60z" fill="#ffc54b" data-original="#ffc54b" style="" />
            <path d="m166 239.37h60v31.8h-60z" fill="#d0edf5" data-original="#d0edf5" style="" />
            <path d="m286 239.37h60v31.8h-60z" fill="#26363f" data-original="#26363f" style="" />
            <path
              d="m466 180.26v90.91h-60v-31.8h12.14c11.12 0 20.12-9.01 20.12-20.12v-38.01c0-11.88-6.69-22.2-16.5-27.39 4.24-2.29 9.09-3.59 14.24-3.59 16.57 0 30 13.43 30 30z"
              fill="#6957a1" data-original="#6957a1" style="" />
          </g>
        </g>
      </g>
      <g>
        <g>
          <g>
            <g>
              <g>
                <g>
                  <path
                    d="m482.373 260.909c0 74.59-36.04 140.77-91.66 182.07l-79.73 27.68-15.55-6.52-242.37-101.56c-9.4-18.68-16.28-38.83-20.22-60.03l15.35-41.64z"
                    fill="#7ac2ed" data-original="#7ac2ed" style="" />
                  <path
                    d="m482.373 260.909c0 74.59-36.04 140.77-91.66 182.07l-79.73 27.68-15.55-6.52c86.82-26.76 149.93-107.64 149.93-203.23z"
                    fill="#68a6dc" data-original="#68a6dc" style="" />
                  <path d="m85.853 260.909c-7.98 18.93-22.51 35.41-53.01 41.64-2.51-13.5-3.82-27.42-3.82-41.64z"
                    fill="#d1e16f" data-original="#d1e16f" style="" />
                  <path
                    d="m390.708 442.976c-37.707 28.001-84.426 44.572-135.015 44.572-55.17 0-105.73-19.701-145.027-52.462-23.844-19.861-43.528-44.532-57.601-72.503 89.307 0 34.106-60.032 75.514-60.032 55.33 0 48.189 89.813 78.415 105.414 29.856 15.421 52.16-16.881 94.608-16.881 32.246 0 32.596 28.101 54.59 42.952 7.891 5.32 18.573 8.94 34.516 8.94z"
                    fill="#d1e16f" data-original="#d1e16f" style="" />
                  <path
                    d="m356.192 434.036c7.891 5.32 18.573 8.94 34.516 8.94-37.707 28.001-84.426 44.572-135.015 44.572-55.17 0-105.73-19.701-145.027-52.462 34.536 24.241 76.614 38.461 122.023 38.461 46.049.001 88.686-14.64 123.503-39.511z"
                    fill="#9ccc4b" data-original="#9ccc4b" style="" />
                </g>
                <g>
                  <path
                    d="m504.595 368.157c0 10.05-8.158 18.207-18.21 18.207h-96.775c-13.71 0-24.822-11.117-24.822-24.825 0-13.701 11.112-24.818 24.822-24.818 5.712 0 10.974 1.93 15.169 5.174 3.164-17.663 18.609-31.073 37.181-31.073 8.455 0 16.272 2.779 22.572 7.474 9.225 6.887 15.205 17.895 15.205 30.297 0 .885-.029 1.771-.087 2.641 2.083-.827 4.355-1.284 6.735-1.284 10.052 0 18.21 8.149 18.21 18.207z"
                    fill="#e6f8fc" data-original="#e6f8fc" style="" />
                  <path
                    d="m504.595 368.157c0 10.05-8.158 18.207-18.21 18.207h-96.775c-13.71 0-24.822-11.117-24.822-24.825 0 6.814 8.426 12.953 15.234 12.953h53.845c20.082-.196 36.296-16.538 36.296-36.661 0-7.184-2.061-13.882-5.632-19.535 9.225 6.887 15.205 17.895 15.205 30.297 0 .885-.029 1.771-.087 2.641 2.083-.827 4.355-1.284 6.735-1.284 10.053 0 18.211 8.149 18.211 18.207z"
                    fill="#d0edf5" data-original="#d0edf5" style="" />
                </g>
                <path
                  d="m263.413 260.907c20.664 16.827 38.926 43.009 32.901 56.807-7.142 16.355-58.734 12.62-71.346 0-9.066-9.071-13.613-38.459-9.333-56.805z"
                  fill="#d1e16f" data-original="#d1e16f" style="" />
              </g>
            </g>
          </g>
        </g>
      </g>
    </g>
    <g xmlns="http://www.w3.org/2000/svg">
      <path
        d="m40.363 497h-32.863c-4.142 0-7.5 3.358-7.5 7.5s3.358 7.5 7.5 7.5h32.863c4.142 0 7.5-3.358 7.5-7.5s-3.358-7.5-7.5-7.5z"
        fill="#000000" data-original="#000000" style="" />
      <path
        d="m425.42 422.342c2.854-3.002 2.733-7.75-.27-10.604-3.001-2.853-7.749-2.732-10.603.27-8.185 8.613-16.959 16.483-26.277 23.581-26.777-.693-35.341-12.921-44.392-25.845-8.554-12.215-18.249-26.059-42.314-26.059-20.463 0-36.245 6.791-50.168 12.783-16.028 6.896-27.607 11.879-41.012 4.956-9.446-4.879-15.133-21.883-21.154-39.886-9.901-29.604-22.224-66.449-60.719-66.449-23.611 0-25.206 17.086-26.262 28.393-1.47 15.741-2.861 30.639-44.692 31.636-7.112-14.94-12.495-30.662-16.048-46.916 23.034-6.362 39.175-19.449 49.098-39.792h27.993c4.142 0 7.5-3.358 7.5-7.5s-3.358-7.5-7.5-7.5h-111.1c-4.142 0-7.5 3.358-7.5 7.5s3.358 7.5 7.5 7.5h14.045c1.866 59.778 26.017 115.703 68.484 158.188 44.239 44.258 103.058 68.632 165.622 68.632 32.66 0 64.267-6.598 93.942-19.611 28.661-12.568 54.173-30.493 75.827-53.277zm-388.867-153.933h36.897c-7.844 12.308-19.132 20.427-34.651 24.969-1.212-8.22-1.965-16.553-2.246-24.969zm219.098 211.82c-58.556 0-113.607-22.813-155.013-64.236-13.98-13.986-25.84-29.529-35.417-46.238 19.118-1.378 32.527-6.195 40.8-14.613 9.211-9.373 10.292-20.958 11.162-30.266 1.162-12.444 1.686-14.787 11.327-14.787 25.767 0 35.138 22.254 46.493 56.207 7.014 20.972 13.64 40.782 28.496 48.455 19.706 10.178 36.278 3.046 53.825-4.504 13.208-5.684 26.866-11.561 44.239-11.561 16.258 0 22.034 8.248 30.028 19.663 7.843 11.2 17.181 24.533 38.181 29.88-8.38 5.113-17.122 9.671-26.202 13.652-27.765 12.175-57.345 18.348-87.919 18.348z"
        fill="#000000" data-original="#000000" style="" />
      <path
        d="m486.732 342.422c-3.003-22.083-21.977-39.155-44.862-39.155-18.557 0-34.815 11.191-41.741 27.69-3.372-1.171-6.941-1.773-10.611-1.773-17.823 0-32.324 14.505-32.324 32.334s14.5 32.334 32.324 32.334h37.96c4.142 0 7.5-3.358 7.5-7.5s-3.358-7.5-7.5-7.5h-37.96c-9.552 0-17.324-7.776-17.324-17.334s7.771-17.334 17.324-17.334c3.87 0 7.528 1.248 10.58 3.607 2.075 1.605 4.836 2.008 7.285 1.066 2.448-.943 4.225-3.096 4.687-5.678 2.582-14.435 15.115-24.912 29.802-24.912 16.694 0 30.276 13.589 30.276 30.292 0 .704-.025 1.42-.074 2.128-.178 2.573.978 5.057 3.062 6.577 2.083 1.52 4.801 1.864 7.197.909 1.256-.501 2.589-.755 3.96-.755 5.905 0 10.709 4.808 10.709 10.717s-4.804 10.717-10.709 10.717h-24.232c-4.142 0-7.5 3.358-7.5 7.5s3.358 7.5 7.5 7.5h24.232c14.176 0 25.709-11.537 25.709-25.717-.002-14.033-11.296-25.477-25.27-25.713z"
        fill="#000000" data-original="#000000" style="" />
      <path
        d="m143.403 496.931h-67.877c-4.142 0-7.5 3.358-7.5 7.5s3.358 7.5 7.5 7.5h67.877c4.142 0 7.5-3.358 7.5-7.5s-3.358-7.5-7.5-7.5z"
        fill="#000000" data-original="#000000" style="" />
      <path
        d="m90.382 479.905c4.142 0 7.5-3.358 7.5-7.5s-3.358-7.5-7.5-7.5h-62.874c-4.142 0-7.5 3.358-7.5 7.5s3.358 7.5 7.5 7.5z"
        fill="#000000" data-original="#000000" style="" />
      <path
        d="m415.032 496.931h-62.875c-4.142 0-7.5 3.358-7.5 7.5s3.358 7.5 7.5 7.5h62.875c4.142 0 7.5-3.358 7.5-7.5s-3.358-7.5-7.5-7.5z"
        fill="#000000" data-original="#000000" style="" />
      <path
        d="m504.5 464.905h-92.886c-4.142 0-7.5 3.358-7.5 7.5s3.358 7.5 7.5 7.5h92.886c4.142 0 7.5-3.358 7.5-7.5s-3.358-7.5-7.5-7.5z"
        fill="#000000" data-original="#000000" style="" />
      <path
        d="m145.902 260.909c0 4.142 3.358 7.5 7.5 7.5h53.409c-1.72 19.188 2.704 44.538 12.758 54.596 8.585 8.589 28.314 13.1 45.9 13.1 5.435 0 10.667-.431 15.299-1.306 14.565-2.751 20.179-9.183 22.324-14.094 6.658-15.243-6.112-36.308-20.914-52.295h192.568c-.244 7.225-.838 14.443-1.777 21.542-.543 4.106 2.346 7.875 6.452 8.418.333.044.665.065.992.065 3.705 0 6.927-2.745 7.426-6.518 1.025-7.747 1.665-15.625 1.914-23.508h14.747c4.142 0 7.5-3.358 7.5-7.5s-3.358-7.5-7.5-7.5h-351.098c-4.142 0-7.5 3.358-7.5 7.5zm75.955 7.5h38.749c9.103 7.755 17.323 17.107 22.787 25.968 6.4 10.379 7.271 17.304 5.953 20.323-.706 1.615-4.104 3.987-11.362 5.358-17.395 3.286-41.679-1.528-47.806-7.659-5.734-5.734-10.247-27.284-8.321-43.99z"
        fill="#000000" data-original="#000000" style="" />
      <path
        d="m46 238.483c4.142 0 7.5-3.358 7.5-7.5v-50.722c0-12.409 10.093-22.504 22.5-22.504s22.5 10.095 22.5 22.504v50.722c0 4.142 3.358 7.5 7.5 7.5s7.5-3.358 7.5-7.5v-50.722c0-12.409 10.093-22.504 22.5-22.504s22.5 10.095 22.5 22.504v50.722c0 4.142 3.358 7.5 7.5 7.5s7.5-3.358 7.5-7.5v-50.722c0-12.409 10.093-22.504 22.5-22.504s22.5 10.095 22.5 22.504v50.722c0 4.142 3.358 7.5 7.5 7.5s7.5-3.358 7.5-7.5v-50.722c0-12.409 10.093-22.504 22.5-22.504s22.5 10.095 22.5 22.504v50.722c0 4.142 3.358 7.5 7.5 7.5s7.5-3.358 7.5-7.5v-50.722c0-12.409 10.093-22.504 22.5-22.504s22.5 10.095 22.5 22.504v50.722c0 4.142 3.358 7.5 7.5 7.5s7.5-3.358 7.5-7.5v-50.722c0-12.409 10.093-22.504 22.5-22.504s22.5 10.095 22.5 22.504v50.722c0 4.142 3.358 7.5 7.5 7.5s7.5-3.358 7.5-7.5v-50.722c0-12.409 10.093-22.504 22.5-22.504s22.5 10.095 22.5 22.504v50.722c0 4.142 3.358 7.5 7.5 7.5s7.5-3.358 7.5-7.5v-50.722c0-13.509-7.179-25.373-17.922-31.976 3.393-4.268 5.422-9.667 5.422-15.531 0-13.787-11.215-25.002-25-25.002s-25 11.216-25 25.002c0 5.864 2.029 11.262 5.422 15.531-4.043 2.485-7.581 5.715-10.422 9.497-2.841-3.782-6.379-7.012-10.422-9.497 3.393-4.268 5.422-9.667 5.422-15.531 0-13.787-11.215-25.002-25-25.002s-25 11.216-25 25.002c0 5.864 2.029 11.262 5.422 15.531-4.043 2.485-7.581 5.715-10.422 9.497-2.841-3.782-6.379-7.012-10.422-9.497 3.393-4.268 5.422-9.667 5.422-15.531 0-13.787-11.215-25.002-25-25.002s-25 11.216-25 25.002c0 5.864 2.029 11.262 5.422 15.531-4.043 2.485-7.581 5.715-10.422 9.497-2.841-3.782-6.379-7.012-10.422-9.497 3.393-4.268 5.422-9.667 5.422-15.531 0-13.787-11.215-25.002-25-25.002s-25 11.216-25 25.002c0 5.864 2.029 11.262 5.422 15.531-4.043 2.485-7.581 5.715-10.422 9.497-2.841-3.782-6.379-7.012-10.422-9.497 3.393-4.268 5.422-9.667 5.422-15.531 0-13.787-11.215-25.002-25-25.002s-25 11.216-25 25.002c0 5.864 2.029 11.262 5.422 15.531-4.043 2.485-7.581 5.715-10.422 9.497-2.841-3.782-6.379-7.012-10.422-9.497 3.393-4.268 5.422-9.667 5.422-15.531 0-13.787-11.215-25.002-25-25.002s-25 11.216-25 25.002c0 5.864 2.029 11.262 5.422 15.531-4.043 2.485-7.581 5.715-10.422 9.497-2.841-3.782-6.379-7.012-10.422-9.497 3.393-4.268 5.422-9.667 5.422-15.531 0-13.787-11.215-25.002-25-25.002s-25 11.216-25 25.002c0 5.864 2.029 11.262 5.422 15.531-10.743 6.604-17.922 18.467-17.922 31.976v50.722c0 4.142 3.358 7.5 7.5 7.5zm390-115.731c5.514 0 10 4.487 10 10.002s-4.486 10.002-10 10.002-10-4.487-10-10.002 4.486-10.002 10-10.002zm-60 0c5.514 0 10 4.487 10 10.002s-4.486 10.002-10 10.002-10-4.487-10-10.002 4.486-10.002 10-10.002zm-60 0c5.514 0 10 4.487 10 10.002s-4.486 10.002-10 10.002-10-4.487-10-10.002 4.486-10.002 10-10.002zm-60 0c5.514 0 10 4.487 10 10.002s-4.486 10.002-10 10.002-10-4.487-10-10.002 4.486-10.002 10-10.002zm-60 0c5.514 0 10 4.487 10 10.002s-4.486 10.002-10 10.002-10-4.487-10-10.002 4.486-10.002 10-10.002zm-60 0c5.514 0 10 4.487 10 10.002s-4.486 10.002-10 10.002-10-4.487-10-10.002 4.486-10.002 10-10.002zm-60 0c5.514 0 10 4.487 10 10.002s-4.486 10.002-10 10.002-10-4.487-10-10.002 4.486-10.002 10-10.002z"
        fill="#000000" data-original="#000000" style="" />
      <path
        d="m76 92.726c4.142 0 7.5-3.358 7.5-7.5v-12.717c0-12.409 10.093-22.504 22.5-22.504s22.5 10.095 22.5 22.504v12.717c0 4.142 3.358 7.5 7.5 7.5s7.5-3.358 7.5-7.5v-12.717c0-12.409 10.093-22.504 22.5-22.504s22.5 10.095 22.5 22.504v12.717c0 4.142 3.358 7.5 7.5 7.5s7.5-3.358 7.5-7.5v-12.717c0-12.409 10.093-22.504 22.5-22.504s22.5 10.095 22.5 22.504v12.717c0 4.142 3.358 7.5 7.5 7.5s7.5-3.358 7.5-7.5v-12.717c0-12.409 10.093-22.504 22.5-22.504s22.5 10.095 22.5 22.504v12.717c0 4.142 3.358 7.5 7.5 7.5s7.5-3.358 7.5-7.5v-12.717c0-12.409 10.093-22.504 22.5-22.504s22.5 10.095 22.5 22.504v12.717c0 4.142 3.358 7.5 7.5 7.5s7.5-3.358 7.5-7.5v-12.717c0-12.409 10.093-22.504 22.5-22.504s22.5 10.095 22.5 22.504v12.717c0 4.142 3.358 7.5 7.5 7.5s7.5-3.358 7.5-7.5v-12.717c0-13.509-7.179-25.372-17.922-31.975 3.393-4.269 5.422-9.667 5.422-15.531 0-13.787-11.215-25.003-25-25.003s-25 11.216-25 25.002c0 5.864 2.029 11.262 5.422 15.531-4.043 2.485-7.581 5.715-10.422 9.497-2.841-3.782-6.379-7.012-10.422-9.497 3.393-4.269 5.422-9.667 5.422-15.531 0-13.786-11.215-25.002-25-25.002s-25 11.216-25 25.002c0 5.864 2.029 11.262 5.422 15.531-4.043 2.485-7.581 5.715-10.422 9.497-2.841-3.782-6.379-7.012-10.422-9.497 3.393-4.269 5.422-9.667 5.422-15.531 0-13.786-11.215-25.002-25-25.002s-25 11.216-25 25.002c0 5.864 2.029 11.262 5.422 15.531-4.043 2.485-7.581 5.715-10.422 9.497-2.841-3.782-6.379-7.012-10.422-9.497 3.393-4.269 5.422-9.667 5.422-15.531 0-13.786-11.215-25.002-25-25.002s-25 11.216-25 25.002c0 5.864 2.029 11.262 5.422 15.531-4.043 2.485-7.581 5.715-10.422 9.497-2.841-3.782-6.379-7.012-10.422-9.497 3.393-4.269 5.422-9.667 5.422-15.531 0-13.786-11.215-25.002-25-25.002s-25 11.216-25 25.002c0 5.864 2.029 11.262 5.422 15.531-4.043 2.485-7.581 5.715-10.422 9.497-2.841-3.782-6.379-7.012-10.422-9.497 3.393-4.269 5.422-9.667 5.422-15.531 0-13.786-11.215-25.002-25-25.002s-25 11.216-25 25.002c0 5.864 2.029 11.262 5.422 15.531-10.743 6.603-17.922 18.467-17.922 31.976v12.717c0 4.142 3.358 7.5 7.5 7.5zm330-77.726c5.514 0 10 4.487 10 10.002s-4.486 10.002-10 10.002-10-4.487-10-10.002 4.486-10.002 10-10.002zm-60 0c5.514 0 10 4.487 10 10.002s-4.486 10.002-10 10.002-10-4.487-10-10.002 4.486-10.002 10-10.002zm-60 0c5.514 0 10 4.487 10 10.002s-4.486 10.002-10 10.002-10-4.487-10-10.002 4.486-10.002 10-10.002zm-60 0c5.514 0 10 4.487 10 10.002s-4.486 10.002-10 10.002-10-4.487-10-10.002 4.486-10.002 10-10.002zm-60 0c5.514 0 10 4.487 10 10.002s-4.486 10.002-10 10.002-10-4.487-10-10.002 4.486-10.002 10-10.002zm-60 0c5.514 0 10 4.487 10 10.002s-4.486 10.002-10 10.002-10-4.487-10-10.002 4.486-10.002 10-10.002z"
        fill="#000000" data-original="#000000" style="" />
    </g>
  </g>
</svg>