<?xml version="1.0" encoding="UTF-8"?><svg id="Layer_1" xmlns="http://www.w3.org/2000/svg" xmlns:xlink="http://www.w3.org/1999/xlink" viewBox="0 0 850 150"><defs><style>.cls-1{fill:url(#linear-gradient);}.cls-2{fill:#333;}.cls-3{fill:url(#linear-gradient-3);}.cls-4{fill:url(#linear-gradient-2);}</style><linearGradient id="linear-gradient" x1="111.71" y1="75.33" x2="203.21" y2="75.33" gradientUnits="userSpaceOnUse"><stop offset=".13" stop-color="#ffa655"/><stop offset=".91" stop-color="#fe4f63"/></linearGradient><linearGradient id="linear-gradient-2" x1="28.74" y1="46.03" x2="92.69" y2="46.03" gradientUnits="userSpaceOnUse"><stop offset="0" stop-color="#445ecc"/><stop offset="1" stop-color="#2f4189"/></linearGradient><linearGradient id="linear-gradient-3" x1="6.64" y1="64.5" x2="103.5" y2="64.5" xlink:href="#linear-gradient-2"/></defs><path class="cls-2" d="m280.98,14.85c26.5,0,42.69,16.19,42.69,42.32v57.59h-29.07v-56.49c0-10.49-4.97-16.38-13.62-16.38s-13.62,5.89-13.62,16.38v56.49h-29.07v-57.59c0-26.13,16.19-42.32,42.69-42.32Z"/><path class="cls-2" d="m338.57,66.37c0-30.73,22.08-51.52,50.42-51.52,26.68,0,51.15,18.22,47.11,59.07h-70.11c2.76,11.59,12.14,18.58,25.03,18.58,10.3,0,19.14-4.42,26.31-13.43l18.77,15.64c-10.86,14.35-26.31,22.45-45.63,22.45-31.1,0-51.89-20.98-51.89-50.79Zm70.66-12.51c-2.21-9.94-9.57-15.46-20.43-15.46s-19.32,6.07-22.45,15.46h42.87Z"/><path class="cls-2" d="m454.85,67.72c0-29.59,22.66-49.99,48.39-49.99s48.39,20.4,48.39,49.99c0,21.46-11.73,37.46-28.53,43.99l26.93-.4v5.07h-46.79c-25.73,0-48.39-18.66-48.39-48.66Zm48.39,43.59c23.46,0,42.92-17.33,42.92-43.59s-19.46-44.79-42.92-44.79-42.92,18.93-42.92,44.79,19.46,43.59,42.92,43.59Z"/><path class="cls-2" d="m571.76,83.72V19.07h5.33v64.12c0,19.2,9.46,29.46,25.86,29.46s25.86-10.26,25.86-29.46V19.07h5.33v64.65c0,21.6-11.46,33.99-31.19,33.99s-31.19-12.4-31.19-33.99Z"/><path class="cls-2" d="m660.8,19.07h46.26v5.07h-40.92v38.66h40.39v5.07h-40.39v43.46h41.59v5.07h-46.92V19.07Z"/><path class="cls-2" d="m722.38,116.38v-5.07c6,.67,11.86.93,17.2.93,16.93,0,25.86-7.07,25.86-20.26,0-9.06-4.4-15.33-14.93-21.86l-10.8-6.67c-10.8-6.66-15.73-14-15.73-23.33,0-13.86,10.4-22,28.39-22,3.47,0,7.46.27,12.53.93v4.93c-4.67-.67-8.53-.93-12.53-.93-15.06,0-23.06,6-23.06,17.06,0,7.73,4,13.33,13.33,19.06l10.66,6.53c11.86,7.33,17.46,15.73,17.46,26.13,0,16-11.46,25.46-31.19,25.46-5.6,0-10.66-.27-17.2-.93Z"/><path class="cls-2" d="m803.43,24.14h-26.66v-5.07h58.65v5.07h-26.66v92.24h-5.33V24.14Z"/><path class="cls-1" d="m189.49,41.41c-.59-13.37-11.32-24.06-24.42-24.06-3.86,0-7.57.91-10.94,2.66-5.68-6.32-14.64-10.09-24.45-10.09-4.29,0-8.41.73-12.18,2.07v-3.54c0-1.77-1.3-3.21-2.9-3.21s-2.9,1.44-2.9,3.21v112.4c0,1.77,1.3,3.21,2.9,3.21s2.9-1.44,2.9-3.21v-3.44c5.2.02,7.68,0,8.89-.04,3.08,7.62,12.44,11.13,20.14,13.83,5.13,2.06,9.42,4.7,12.06,9.56,1.51,2.77,4.29,4.51,7.45,4.65.14,0,.28,0,.43,0,2.98,0,5.73-1.46,7.4-3.96,2.85-4.24,1.53-7.17-1.97-14.99-.47-1.04-.97-2.18-1.52-3.42,5.21-1.18,9.55-4.69,11.8-9.66.94-2.07,1.41-6.71,1.42-10.26,6.14-2.81,10.41-9.01,10.41-16.19,0-1-.08-1.99-.25-2.97,1.2-.96,2.3-2.04,3.29-3.2,1.81-1.99,3.25-4.32,4.19-6.84,1.27-3.07,1.95-6.42,1.95-9.86,0-9.79-5.39-18.5-13.71-22.67Zm-71.99,68.21v-8.57c2.13,1.66,4.65,2.78,7.37,3.24.1,2.02.25,5.15.24,5.33h-7.61Zm49.45,27.88c-.17.08-1.03.44-1.52-.46-3.51-6.46-9.25-10.37-16.14-13.12l-.06-.02c-5.61-1.96-13.04-3.58-15.56-9.41-.51-1.19-.8-6.42-.84-9.94h6.59c.03,8.6,3.16,15.64,22.69,19.01l5.39,12.47c.4.92-.32,1.36-.55,1.47Zm-10.97-21.81c-7.47-1.43-8.52-7.22-8.78-11.14h26.4c.68.1,1.37.16,2.05.19-.37,5.18-.22,14.68-19.67,10.95Zm37.21-47.14c-.16.31-.29.63-.38.98-.09.33-.19.66-.31.98-.6,1.43-1.41,2.75-2.38,3.94-.99,1.09-2.17,2.01-3.47,2.65-2.97,1.46-6.71,1.56-9.75.26-2.38-1.02-5.14.09-6.16,2.47-1.02,2.38.09,5.14,2.47,6.16,2.61,1.12,5.44,1.67,8.27,1.67,1.05,0,2.09-.08,3.12-.23-.24,4.42-3.91,7.94-8.38,7.94-.47,0-.96-.04-1.45-.13l-.4-.07h-46.13c-.11,0-.22-.02-.33-.02-.03,0-.06,0-.09,0-2.34,0-4.46-.99-5.82-2.73-1.31-1.68-1.72-3.84-1.14-6.09.56-2.17,1.64-3.71,3.22-4.57,1.44-.78,3.28-.96,4.8-.45,2.46.82,5.12-.51,5.93-2.97.82-2.46-.51-5.12-2.97-5.93-2.69-.9-5.67-.99-8.46-.33-.05,0-.11,0-.16,0-.03,0-.06,0-.09,0-2.24,0-4.27-.91-5.62-2.51v-29.51c.77,1.21,2.06,2.06,3.6,2.17,2.58.2,4.84-1.74,5.03-4.33.31-4.17-1.21-8.51-4.06-11.61-1.06-1.15-2.56-2.41-4.56-3.38v-.66c3.51-1.88,7.74-2.96,12.18-2.96,8.29,0,15.86,3.7,19.29,9.44l1.76,2.94c.61,1.7.85,3.54.65,5.3-.38,3.29-2.32,6.49-5.06,8.34-.63.43-1.12.98-1.46,1.6-.67,1.06-.92,2.39-.57,3.7.66,2.51,3.23,4,5.74,3.34,2.29-.6,4.61-.18,6.37,1.18,1.69,1.3,2.62,3.29,2.62,5.61s-.67,4-1.98,5.22c-1.2,1.12-2.94,1.74-4.54,1.63-2.58-.19-4.83,1.77-5.01,4.36-.18,2.59,1.77,4.83,4.36,5.01.33.02.67.04,1.01.04,3.85,0,7.75-1.52,10.59-4.17,2.26-2.11,4.96-5.92,4.96-12.09,0-5.22-2.29-9.98-6.28-13.05-1.17-.9-2.44-1.62-3.77-2.17,1.24-2.32,2.05-4.86,2.36-7.47.4-3.43-.1-6.94-1.36-10.14,1.8-.78,3.73-1.19,5.72-1.19,8.3,0,15.06,7.1,15.06,15.84,0,.49-.02.98-.07,1.52l-.33,3.71,3.54,1.17c6.31,2.08,10.55,8.15,10.55,15.12,0,1.54-.22,3.04-.62,4.47Z"/><path class="cls-4" d="m73.1,39.14c1.47,3.8,5.15,6.5,9.45,6.5,5.59,0,10.14-4.55,10.14-10.14s-4.55-10.14-10.14-10.14c-4.69,0-8.64,3.21-9.79,7.54h-13.94c-1.7,0-.96-.35-15.74,14.44-1.28-.59-2.7-.93-4.21-.93-5.59,0-10.14,4.55-10.14,10.14s4.55,10.14,10.14,10.14,10.14-4.55,10.14-10.14c0-1.82-.49-3.52-1.33-5l12.42-12.42h12.99Zm13.35-3.64c0,5.16-7.8,5.15-7.8,0s7.8-5.15,7.8,0Zm-51.47,21.06c0-5.16,7.8-5.15,7.8,0s-7.8,5.15-7.8,0Z"/><path class="cls-3" d="m100.66,5.01c-1.62,0-2.94,1.32-2.94,2.94v4.54h-27.25c-1.2-4.27-5.11-7.41-9.75-7.41-5.59,0-10.14,4.55-10.14,10.14s4.55,10.14,10.14,10.14c4.35,0,8.07-2.77,9.5-6.63h27.51v25.26l-7.88,7.88c-17.15,0-18.27-.58-19.76.91-.26.26-2.1,2.08-4.28,4.25-1.45-.8-3.12-1.26-4.89-1.26-5.59,0-10.14,4.55-10.14,10.14s4.55,10.14,10.14,10.14c3.52,0,6.62-1.8,8.44-4.53,19.73.06,25.99.22,28.37-.08v9.36c-1.82-2.7-4.91-4.49-8.41-4.49-4.45,0-8.24,2.89-9.59,6.89H27.43l-3.06-3.05c1.58-1.79,2.54-4.13,2.54-6.69,0-4.64-3.14-8.56-7.41-9.75v-15.21l13.82-13.82c1.48.85,3.2,1.35,5.03,1.35,5.59,0,10.14-4.55,10.14-10.14s-4.55-10.14-10.14-10.14-10.14,4.55-10.14,10.14c0,1.49.33,2.89.91,4.17-16.36,16.32-15.85,15.44-15.85,17.15v16.76c-3.86,1.43-6.63,5.14-6.63,9.5,0,5.59,4.55,10.14,10.14,10.14.69,0,1.36-.07,2.01-.2l5.14,5.14c1.46,1.45-1.02.94,55.69.92,1.28,4.13,5.14,7.15,9.69,7.15,3.5,0,6.59-1.78,8.41-4.49v16.44h-22.59l-2.93-2.93c.63-1.32.99-2.79.99-4.35,0-5.59-4.55-10.14-10.14-10.14s-10.14,4.55-10.14,10.14,4.55,10.14,10.14,10.14c1.76,0,3.42-.45,4.86-1.24,4.14,4.19,4.45,4.62,5.93,4.62h23.88v6.28c0,1.62,1.32,2.94,2.94,2.94,1.38,0,2.53-.95,2.84-2.23V7.24c-.32-1.28-1.47-2.23-2.84-2.23Zm-43.84,10.21c0-5.16,7.8-5.15,7.8,0s-7.8,5.15-7.8,0Zm.19,50.69c0-5.16,7.8-5.15,7.8,0s-7.8,5.15-7.8,0Zm-14.75-40.03c0,5.16-7.8,5.15-7.8,0s7.8-5.15,7.8,0Zm-29.37,47.57c0-5.16,7.8-5.15,7.8,0s-7.8,5.15-7.8,0Zm72.53,13c0-5.16,7.8-5.15,7.8,0s-7.8,5.15-7.8,0Zm-26.26,14.82c0-5.16,7.8-5.15,7.8,0s-7.8,5.15-7.8,0Zm38.57-37.65c-.52.52-1.06,1.07-1.65,1.65h-25.06c-.08-1.3-.41-2.53-.94-3.65l3.5-3.5h17.55c1.28,0,1.33.04,6.59-5.26v10.76Z"/></svg>